    <svg width="28px" height="28px" viewBox="0 0 128 128" fill="none" xmlns="http://www.w3.org/2000/svg">
      <g clipPath="url(#clip0_1767_43973)">
        <path
          fillRule="evenodd"
          clipRule="evenodd"
          d="M43.0998 77.5031C36.9188 86.9743 26.5615 98.96 12.7796 98.96C6.2645 98.96 0 96.2779 0 84.6275C0 54.9566 40.5104 9.02544 78.0975 9.02544C99.4803 9.02544 108 23.8609 108 40.7079C108 62.3324 93.9675 87.0581 80.0186 87.0581C75.5917 87.0581 73.42 84.6275 73.42 80.7719C73.42 79.7662 73.587 78.6765 73.9211 77.5031C69.1601 85.6333 59.9722 93.1767 51.3689 93.1767C45.1044 93.1767 41.9304 89.2374 41.9304 83.7055C41.9304 81.6939 42.348 79.5985 43.0998 77.5031ZM93.8864 40.1222C93.8864 45.0313 90.99 47.4859 87.75 47.4859C84.4609 47.4859 81.6136 45.0313 81.6136 40.1222C81.6136 35.2131 84.4609 32.7586 87.75 32.7586C90.99 32.7586 93.8864 35.2131 93.8864 40.1222ZM75.4773 40.1222C75.4773 45.0313 72.5809 47.4859 69.3409 47.4859C66.0518 47.4859 63.2046 45.0313 63.2046 40.1222C63.2046 35.2131 66.0518 32.7586 69.3409 32.7586C72.5809 32.7586 75.4773 35.2131 75.4773 40.1222Z"
          fill="#AB9FF2"
        />
      </g>
      <defs>
        <clipPath id="clip0_1767_43973">
          <rect width="128px" height="128px" fill="white" />
        </clipPath>
      </defs>
    </svg>